<svg viewBox="0 0 100 100" fill="none" xmlns="http://www.w3.org/2000/svg">
    <path d="M0 17C0 7.61116 7.61116 0 17 0H83C92.3888 0 100 7.61116 100 17V63C100 72.3888 92.3888 80 83 80H17C7.61116 80 0 72.3888 0 63V17Z" fill="#222121"/>
    <path d="M41.4765 100L24 80H59L41.4765 100Z" fill="#222121"/>
    <path d="M0 17C0 7.61116 7.61116 0 17 0H83C92.3888 0 100 7.61116 100 17V63C100 72.3888 92.3888 80 83 80H17C7.61116 80 0 72.3888 0 63V17Z" fill="url(#paint0_linear_2_15)"/>
    <path d="M41.4765 100L24 80H59L41.4765 100Z" fill="url(#paint1_linear_2_15)"/>
    <path d="M18.5858 54.5858C17.8047 55.3668 17.8047 56.6332 18.5858 57.4142L31.3137 70.1421C32.0948 70.9232 33.3611 70.9232 34.1421 70.1421C34.9232 69.3611 34.9232 68.0948 34.1421 67.3137L22.8284 56L34.1421 44.6863C34.9232 43.9052 34.9232 42.6389 34.1421 41.8579C33.3611 41.0768 32.0948 41.0768 31.3137 41.8579L18.5858 54.5858ZM80.4142 25.4142C81.1953 24.6332 81.1953 23.3668 80.4142 22.5858L67.6863 9.85786C66.9052 9.07682 65.6389 9.07682 64.8579 9.85786C64.0768 10.6389 64.0768 11.9052 64.8579 12.6863L76.1716 24L64.8579 35.3137C64.0768 36.0948 64.0768 37.3611 64.8579 38.1421C65.6389 38.9232 66.9052 38.9232 67.6863 38.1421L80.4142 25.4142ZM79 54H20V58H79V54ZM20 26H79V22H20V26Z" fill="white" fill-opacity="0.69"/>
    <defs>
    <linearGradient id="paint0_linear_2_15" x1="50" y1="0" x2="50" y2="100" gradientUnits="userSpaceOnUse">
    <stop stop-color="#20A271"/>
    <stop offset="1" stop-color="#2A6066" stop-opacity="0"/>
    </linearGradient>
    <linearGradient id="paint1_linear_2_15" x1="50" y1="0" x2="50" y2="100" gradientUnits="userSpaceOnUse">
    <stop stop-color="#20A271"/>
    <stop offset="1" stop-color="#2A6066" stop-opacity="0"/>
    </linearGradient>
    </defs>
</svg>
