<?xml version="1.0" standalone="no"?>
<!DOCTYPE svg PUBLIC "-//W3C//DTD SVG 20010904//EN"
 "http://www.w3.org/TR/2001/REC-SVG-20010904/DTD/svg10.dtd">
<svg version="1.0" xmlns="http://www.w3.org/2000/svg"
 width="700.000000pt" height="700.000000pt" viewBox="0 0 700.000000 700.000000"
 preserveAspectRatio="xMidYMid meet">
<metadata>
Created by potrace 1.14, written by Peter Selinger 2001-2017
</metadata>
<g transform="translate(0.000000,700.000000) scale(0.100000,-0.100000)"
fill="#000000" stroke="none">
<path d="M994 6985 c-507 -92 -887 -471 -978 -974 -21 -114 -21 -3499 -1
-3614 63 -353 264 -646 564 -827 125 -75 235 -116 416 -156 17 -4 176 -9 355
-11 l325 -4 50 -52 c28 -29 70 -77 95 -107 25 -29 50 -58 55 -64 6 -6 89 -101
185 -211 96 -110 179 -205 185 -211 5 -6 35 -40 65 -75 30 -35 91 -104 135
-154 44 -50 103 -117 130 -149 28 -33 55 -64 61 -70 5 -6 43 -49 82 -95 165
-191 184 -210 196 -198 7 7 106 120 221 252 116 132 215 245 220 251 6 6 35
39 65 74 30 34 60 68 66 74 5 6 39 45 74 86 36 41 76 87 90 101 14 15 43 48
65 74 35 42 86 100 150 171 11 12 31 35 44 50 13 16 69 80 123 142 l99 112
882 1 c485 0 891 2 902 4 11 1 40 6 65 9 91 12 117 18 202 46 73 25 188 78
270 126 49 29 183 142 233 197 114 125 219 309 264 462 53 180 50 94 48 1990
l-2 1760 -22 80 c-46 168 -93 276 -170 392 -183 274 -466 459 -788 517 -113
20 -4910 21 -5021 1z"/>
</g>
</svg>
